PathFileType	4	(X/Y/Z)	D:\TRACE\v60_Jaco2_6-2-23\JustBodyDRS_Motion1_8-platform.trc
DataRate	CameraRate	NumFrames	NumMarkers	Units	OrigDataRate	OrigDataStartFrame	OrigNumFrames
100.00	100.00	      65	5	mm	100.00	5874	      6712
Frame#	Time	Left_Front			Right_Front			Left_Aft			Right_Aft			Post			
		X1	Y1	Z1	X2	Y2	Z2	X3	Y3	Z3	X4	Y4	Z4	X5	Y5	Z5	

5874	58.730	-839.90479	34.97918	-631.78375	730.05994	35.18214	-637.27032	-747.85352	-10.21093	502.60687	694.26245	-11.71638	511.52747	-53.25827	1344.91138	-904.02844	
5875	58.740	-840.62555	35.19856	-631.61865	729.60388	35.58536	-637.17285	-748.31531	-10.67402	503.00256	693.37469	-12.07695	511.49475	-53.74666	1345.34595	-903.43921	
5876	58.750	-841.15179	35.54506	-631.78772	728.73065	36.00901	-637.12952	-748.86444	-10.72783	503.21609	692.84338	-12.19316	511.63290	-54.03510	1345.64905	-902.97137	
5877	58.760	-841.86737	35.77323	-631.95129	727.99976	36.18436	-637.13892	-749.57355	-10.90340	503.17444	692.40417	-12.37743	511.69931	-54.97930	1345.91162	-902.42468	
5878	58.770	-842.48499	35.83076	-631.80725	727.28857	36.10981	-636.92487	-750.23083	-11.09002	503.19821	691.58563	-12.60217	511.79959	-55.74878	1346.51599	-902.15381	
5879	58.780	-843.23163	35.76775	-631.32495	726.87524	36.47408	-636.79254	-750.71497	-11.45272	503.40128	690.63000	-13.22487	511.80634	-55.99136	1347.05188	-902.12457	
5880	58.790	-843.94556	36.28653	-631.03766	726.40137	36.83718	-636.64972	-751.53076	-11.69884	503.40915	690.27887	-13.28582	511.93344	-56.66376	1347.61230	-901.53595	
5881	58.800	-844.50458	36.64132	-631.24091	725.55511	37.19550	-636.68890	-751.86194	-12.14892	503.73618	690.00879	-13.39096	512.02087	-57.14668	1347.90564	-901.02527	
5882	58.810	-844.75165	37.01593	-631.10620	725.03674	37.63597	-636.66284	-752.49603	-12.20418	503.87775	689.29877	-13.65102	512.13568	-57.96501	1348.40674	-900.00037	
5883	58.820	-845.33423	37.64929	-631.32867	724.37811	38.13263	-636.59351	-752.99829	-12.37584	504.02747	688.27509	-13.93340	512.18933	-58.37004	1348.77454	-898.91553	
5884	58.830	-846.03778	37.80060	-631.27087	723.91223	38.17540	-636.52429	-753.40002	-12.57824	504.06769	687.87750	-14.21054	512.30096	-59.17807	1349.09399	-897.53302	
5885	58.840	-846.51776	37.91757	-631.06580	723.45331	38.13890	-636.39685	-754.12415	-12.42607	503.83670	687.48193	-14.29434	512.33301	-59.60312	1349.34851	-896.68213	
5886	58.850	-847.05145	38.45881	-631.04779	722.91779	38.44439	-636.36554	-755.19763	-12.17143	503.19223	687.30035	-14.31943	512.30457	-60.16697	1349.52332	-895.56921	
5887	58.860	-847.52423	38.29777	-630.72302	722.66272	38.70469	-636.28931	-755.59918	-12.20732	503.24643	687.00836	-14.43065	512.30066	-60.62800	1349.75891	-895.04224	
5888	58.870	-847.87000	38.30758	-630.88855	722.20203	38.79324	-636.30389	-756.03192	-12.13095	503.41599	685.87219	-14.75775	512.27423	-61.16192	1350.21106	-894.84735	
5889	58.880	-848.17645	38.44148	-630.72736	721.78815	39.04048	-636.23071	-756.55499	-12.07224	503.39395	684.66620	-15.66335	512.21039	-61.52525	1350.59656	-895.14374	
5890	58.890	-848.56171	38.71439	-630.70386	721.20789	39.33750	-636.21240	-757.09778	-12.29677	503.40054	684.92719	-15.39350	512.47369	-61.55277	1350.81787	-895.37897	
5891	58.900	-848.83899	38.97427	-630.74200	720.79034	39.44096	-636.07550	-757.42346	-12.50397	503.39627	685.01276	-15.31618	512.79895	-61.67724	1351.12158	-895.75073	
5892	58.910	-849.20728	39.23157	-630.69397	720.49304	39.59788	-635.91016	-757.68634	-12.61125	503.59036	684.85144	-15.45219	512.81500	-61.74035	1351.37012	-895.75214	
5893	58.920	-849.61969	39.40347	-630.61542	720.34052	39.71078	-635.85760	-758.03833	-12.69430	503.76910	684.43707	-15.74281	512.63177	-61.75342	1351.65100	-895.51318	
5894	58.930	-849.88403	39.74609	-630.45819	720.22900	40.00018	-635.76715	-758.19464	-12.67996	503.66074	683.54254	-16.38765	512.21899	-62.70012	1351.99072	-894.88678	
5895	58.940	-850.09344	39.90502	-630.31757	720.04047	40.38608	-635.66400	-758.49915	-12.80400	503.70047	684.18848	-15.74134	512.64276	-62.82819	1352.18481	-894.54999	
5896	58.950	-850.40070	39.99066	-630.50568	719.82117	40.50257	-635.72485	-758.71271	-12.85411	503.73792	684.27960	-15.57854	512.62378	-63.45899	1352.30029	-893.53406	
5897	58.960	-850.64185	40.09438	-630.46838	719.75464	40.56326	-635.57056	-759.03375	-13.08783	503.70880	684.17041	-15.64514	512.68213	-63.52534	1352.26440	-892.59448	
5898	58.970	-850.71021	40.15100	-630.42517	719.47418	40.64736	-635.62231	-759.17999	-13.18150	503.76660	684.15967	-15.66889	512.66998	-63.34847	1352.48181	-890.91254	
5899	58.980	-850.71051	40.22041	-630.40692	719.49121	40.82378	-635.55511	-759.26953	-13.15720	503.74310	682.89282	-16.19284	512.65216	-63.60030	1352.61389	-890.36743	
5900	58.990	-850.55774	40.35930	-630.21167	719.54663	41.04976	-635.54224	-759.25244	-13.09057	503.67804	682.94012	-16.17511	512.71375	-63.69527	1352.86926	-889.88196	
5901	59.000	-850.76019	40.51777	-630.51135	719.44525	41.19407	-635.59222	-759.25049	-13.19304	503.73093	682.87170	-16.22420	512.70782	-63.67101	1352.99463	-889.88824	
5902	59.010	-850.84375	40.39760	-630.29132	719.44684	41.28184	-635.51953	-759.39471	-13.10804	503.72266	682.88196	-16.22448	512.73370	-63.67402	1353.06177	-890.12036	
5903	59.020	-850.79449	40.57451	-630.42236	719.31921	41.30914	-635.46057	-759.32684	-13.43479	503.85550	682.89874	-16.28859	512.77374	-63.67267	1353.11133	-890.69641	
5904	59.030	-850.77411	40.60001	-630.33698	719.33899	41.31357	-635.47052	-759.21619	-13.63025	503.86432	682.91394	-16.36664	512.80737	-63.60543	1353.25769	-891.24689	
5905	59.040	-850.75500	40.73098	-630.30469	719.36896	41.44638	-635.44623	-759.17548	-13.63668	503.91296	682.93616	-16.52098	512.80829	-63.38322	1353.50342	-892.07916	
5906	59.050	-850.70734	40.86494	-630.14209	719.42419	41.53768	-635.40051	-759.10699	-13.64603	503.82288	683.54669	-16.43164	513.53265	-63.48733	1353.65906	-892.35626	
5907	59.060	-850.73401	40.92586	-630.11023	719.43823	41.57439	-635.44958	-759.12421	-13.69344	503.80951	683.16003	-16.73887	513.15674	-63.44865	1353.71179	-892.34290	
5908	59.070	-850.84674	40.75673	-630.08301	719.33740	41.55254	-635.44714	-758.80438	-14.06664	503.70273	682.70465	-17.08593	512.77045	-63.45488	1353.71362	-892.15839	
5909	59.080	-850.74176	40.81962	-630.20929	719.33801	41.53851	-635.35773	-758.80164	-14.07889	503.68015	682.38403	-17.37413	512.63635	-63.44132	1353.62573	-891.45380	
5910	59.090	-850.73346	40.87482	-630.18597	719.31561	41.55358	-635.43036	-758.76868	-14.04875	503.66360	681.88635	-17.58709	512.55005	-63.56913	1353.61365	-890.60522	
5911	59.100	-850.68250	41.02471	-629.98755	719.40955	41.60010	-635.42963	-759.04364	-13.72240	503.77570	681.49115	-17.91635	512.39490	-63.69581	1353.72461	-890.17865	
5912	59.110	-850.52167	41.44323	-629.88599	719.53711	41.82971	-635.39166	-758.86389	-13.87372	503.84909	684.78174	-15.64793	514.72925	-63.54121	1353.66162	-889.32697	
5913	59.120	-850.42810	41.52202	-629.93036	719.79553	41.85434	-635.38397	-758.81165	-13.88773	503.91174	685.07397	-15.75523	514.60132	-63.24315	1353.84607	-888.52606	
5914	59.130	-850.15448	41.20226	-629.92303	720.12720	41.59072	-635.36682	-758.20056	-14.49073	503.67889	685.71735	-15.72648	514.45721	-63.10796	1353.90137	-888.39453	
5915	59.140	-849.97278	40.99441	-630.08582	720.22919	41.41291	-635.30438	-757.94666	-14.47147	503.66110	685.92810	-15.70680	514.24133	-62.77667	1353.69141	-888.53137	
5916	59.150	-849.65515	40.94890	-630.17139	720.31433	41.46540	-635.38239	-757.61676	-14.31720	503.66769	685.56201	-16.11522	514.08838	-62.20516	1353.49902	-889.03394	
5917	59.160	-849.29596	40.99879	-630.16547	720.54736	41.33665	-635.44684	-757.25964	-14.29789	503.62692	685.45386	-16.25454	513.63831	-62.15952	1353.42688	-889.62280	
5918	59.170	-848.82159	41.01676	-630.14349	720.82654	41.29677	-635.46295	-756.93982	-14.12497	503.59171	685.75201	-16.12242	513.60107	-62.07132	1353.37122	-890.82312	
5919	59.180	-848.47913	40.81526	-630.08948	721.25372	41.24002	-635.50256	-756.61536	-14.07803	503.51648	685.88483	-16.15488	513.52350	-61.74702	1353.41846	-891.76477	
5920	59.190	-848.15399	40.55479	-630.08075	721.53033	41.18481	-635.65503	-756.25519	-14.14124	503.51154	685.97791	-16.17106	513.41553	-61.29373	1353.22791	-892.46973	
5921	59.200	-847.96039	40.35801	-630.39392	721.89221	40.90691	-635.74719	-755.97339	-14.23505	503.48047	686.03204	-16.09793	513.38983	-60.86898	1353.15723	-893.07306	
5922	59.210	-847.66882	40.58035	-630.20844	722.35052	40.70778	-635.72894	-755.70880	-14.18953	503.53259	686.51941	-16.02902	513.29987	-60.44604	1353.09656	-893.30035	
5923	59.220	-847.37140	40.62243	-630.09851	722.71637	40.82670	-635.70422	-755.37244	-14.07695	503.55368	686.76587	-16.06348	512.73529	-60.21452	1353.00732	-893.19824	
5924	59.230	-847.09393	40.60860	-630.13263	723.15826	40.78721	-635.66217	-754.96039	-13.97899	503.60110	687.25372	-16.02282	513.35968	-60.02643	1352.91968	-892.95508	
5925	59.240	-846.70428	40.52674	-630.20813	723.36774	40.79269	-635.63605	-754.68536	-13.83156	503.52139	687.69086	-16.02357	513.20001	-59.59805	1352.81311	-892.44934	
5926	59.250	-846.44330	40.25635	-630.06287	723.73077	40.74854	-635.63861	-754.25165	-13.85236	503.41800	687.67322	-16.14753	513.03821	-59.33524	1352.70605	-891.80396	
5927	59.260	-845.68970	40.11366	-630.23456	724.01501	40.59975	-635.68073	-753.93036	-13.78994	503.35718	687.99646	-15.98953	513.06403	-59.02599	1352.44849	-891.03070	
5928	59.270	-845.04211	40.11087	-630.63281	724.53540	40.44684	-635.78137	-753.24878	-13.74462	503.39365	688.56024	-15.97389	513.10577	-58.20265	1352.20557	-890.73804	
5929	59.280	-844.63910	39.92667	-630.43494	725.08197	40.24894	-635.90771	-752.94202	-13.55956	503.41068	689.01575	-15.89721	512.77362	-57.75442	1352.03687	-891.04236	
5930	59.290	-844.35925	39.78386	-630.44958	725.67175	40.05484	-635.96930	-752.37225	-13.36067	503.37805	689.37347	-15.95673	512.56305	-57.71777	1351.85571	-891.88824	
5931	59.300	-843.78241	39.53674	-630.52087	726.25049	39.81452	-636.03186	-751.83643	-13.25944	503.33054	690.05774	-15.83067	512.49542	-57.29649	1351.59973	-892.84094	
5932	59.310	-843.39404	39.39542	-630.64789	726.58215	39.68616	-635.98541	-751.39465	-13.14219	503.25278	690.19116	-15.78233	512.55402	-56.55321	1351.28577	-893.96985	
5933	59.320	-843.06104	39.26232	-630.78711	726.87708	39.46829	-636.07794	-751.01178	-13.12078	503.15207	690.84564	-15.52777	512.62665	-55.42067	1350.82410	-895.45612	
5934	59.330	-842.52466	39.08952	-630.88171	727.39972	39.22537	-636.14160	-750.43658	-13.02216	503.12817	691.59857	-15.31033	512.59656	-55.51477	1350.73938	-896.80670	
5935	59.340	-841.88629	38.93297	-630.94531	728.13086	39.04765	-636.13757	-749.93323	-12.71762	503.20862	692.04242	-15.06276	512.66693	-55.13758	1350.72131	-897.60510	
5936	59.350	-841.30231	38.73446	-630.89026	728.72644	38.92287	-636.19360	-749.39276	-12.63292	503.14804	692.65790	-14.87928	512.79102	-54.37588	1350.44189	-898.13751	
5937	59.360	-840.79602	38.43319	-630.80206	729.32202	38.85584	-636.26831	-748.78076	-12.55798	503.10892	693.13782	-14.71705	512.78613	-53.84225	1350.21802	-898.69061	
5938	59.370	-840.22589	38.18114	-630.76355	729.74957	38.66302	-636.36493	-748.24530	-12.42430	503.10629	694.05524	-14.41396	512.75610	-53.11318	1349.89465	-898.61804	
